<?xml version="1.0" encoding="UTF-8"?>
<svg id="Layer_1" data-name="Layer 1" xmlns="http://www.w3.org/2000/svg" viewBox="0 0 1036.94 1080">
  <defs>
    <style>
      .cls-1 {
        fill: #656563;
        stroke-width: 0px;
      }
    </style>
  </defs>
  <path class="cls-1" d="M688.85,697.79c-16.3,0-31.23.03-46.16-.03-2.51-.01-4.92.97-6.7,2.73-6.95,6.85-13.87,13.73-21.02,20.38-2.54,2.37-2.02,3.91.15,5.94,8.14,7.63,16.26,15.27,24.27,23.02,2.41,2.33,4.21,2.62,6.56-.1,2.18-2.52,4.66-4.81,7.26-6.91,6.92-5.57,14.62-5.18,20.38.84,5.62,5.87,5.73,14.02-.41,20.37-14.45,14.94-30.34,28.26-46.67,41.08-30.93,24.29-65.85,41.69-100.98,58.74-3.96,1.92-7.97,2.5-12.24.65-58.68-25.43-112.68-57.87-156.04-105.79-58.16-64.28-89.06-139.76-90.03-226.63-.8-71.6-.23-143.21-.21-214.82,0-10,3.59-13.45,15.3-15.68,60.02-11.44,118.19-28.7,173.33-55.4,18.06-8.75,35.89-17.98,53.02-28.43,7.3-4.45,13.87-4.55,21.21-.08,34.92,21.28,71.33,39.52,109.91,53.3,8.31,2.97,11.55,10.46,8.77,18.3-2.81,7.91-10.88,11.56-19.72,8.39-28.39-10.16-55.64-22.88-82.18-37.15-7.27-3.91-14.77-7.43-21.76-11.78-4.64-2.89-8.28-2.57-12.87.03-37.3,21.2-76.2,38.95-116.69,53.14-30.55,10.7-61.95,18.37-93.51,25.37-4.43.98-6.4,2.43-6.39,7.3.21,68.26-1.33,136.56.71,204.76,2.66,88.81,40.32,162.26,104.89,222.51,33.56,31.31,73.27,52.79,114.2,72.43,2.64,1.27,4.62.65,6.89-.46,33.47-16.44,66.13-34.21,95.53-57.47,4.65-3.68,3.78-5.31-2-9.94-7.41-5.94-14.14-12.68-20.47-19.76-3.34-3.73-5.09-4-8.53-1.39-16.72,12.68-34.54,23.69-52.51,34.53-10.4,6.27-19.35,6.59-30.45.71-52.54-27.84-96.26-65.07-127.45-116.16-22.91-37.53-35.11-78.44-36.86-122.24-1.03-25.84-.55-51.74-.62-77.62-.02-8.91,4.14-12.94,13.24-13.06,10.71-.14,21.42-.25,32.12.03,4.5.12,5.65-1.53,5.65-5.79.02-18.25-1.41-36.65,4.08-54.48,15.29-49.62,47.9-81.71,98.76-92.36,51.29-10.74,94.12,6.18,127.55,46.22,18.08,21.66,26.39,47.23,27.02,75.34.19,8.47.44,16.96.23,25.43-.11,4.46,1.54,5.67,5.81,5.54,10.48-.3,20.97-.2,31.45-.18,9.73.02,13.6,3.52,13.67,13.14.2,27.88.24,55.77.18,83.65-.02,8.13-5.31,13.55-14.16,13.66-22.97.31-45.95.32-68.93.03-8.84-.11-14.61-6.8-14.35-15.23.24-7.92,6.2-13.37,15.26-13.47,15.61-.16,31.24-.33,46.84.03,6.12.14,6.95-2.28,6.53-8.65-.78-11.84-.62-23.72.07-35.57.39-6.74-1.26-8.61-7.72-8.59-73.39.22-146.78.14-220.18.12-22.75,0-45.51-.04-68.26-.07-3.13,0-6.3-.59-6.29,4.4.05,34.32-1.39,68.73,7.27,102.46,14.79,57.57,48.74,101.9,95.01,137.71,13.78,10.66,28.49,19.9,43.95,28,3.57,1.87,6.15,1.83,9.72-.16,33.34-18.68,63.32-41.79,89.42-69.58,9.6-10.22,19.35-15.27,33.65-14.28,17.98,1.24,36.12.15,54.19.38,4.22.05,6.4-1.39,8.11-5.13,4.08-8.92,7.85-17.96,11.56-27.03,2.09-5.12,1.76-6.69-4.35-6.63-33.01.28-66.02.19-99.04.16-9.36,0-15.38-5.83-15.44-14.68-.06-8.92,6.03-14.33,16.43-14.36,33.86-.07,67.71-.06,101.57-.09,1.76,0,4.99.15,6.75.18,4.03.07,5.79-1.76,6.89-6.21,5.72-23.31,8.33-46.99,8.55-70.9.3-32.79.05-65.58.1-98.38.02-10.33,6.05-16.51,15.35-16.03,8.33.43,13.07,5.83,13.07,15.37.02,32.35-.02,64.69-.13,97.04-.25,69.84-19.2,134.16-57.13,192.84-6.79,10.51-15.63,12.28-25.4,5.38-5.28-3.73-6.57-8.07-3.17-13.75,1.46-2.44,2.58-5.1,4.56-9.09ZM518.11,451.24v-.06c31.45,0,62.9.02,94.34-.03,2.93,0,6.51.97,6.37-4.23-.33-12.03.93-24.12-.74-36.09-6.27-44.98-44.48-82.05-88.18-85.79-49.4-4.23-91.89,23.34-106.93,68.99-5.43,16.49-4.76,33.38-5.07,50.32-.1,5.7,1.76,7.05,7.19,7.01,31-.24,62-.12,93.01-.12Z"/>
  <path class="cls-1" d="M502.81,625.52c-.01-3.42.11-6.83.2-10.25.25-8.87-1.88-15.89-10.91-22.17-13.54-9.4-16.87-31.24-10.04-46.35,7.11-15.75,23.22-24.96,40.76-23.33,16.67,1.56,31.62,14.65,35.45,31.06,3.97,17.03-3,34.32-18.18,43.1-4.62,2.67-5.86,5.65-5.78,10.59.24,14.72.02,29.44-.02,44.16-.02,9.85-6.42,17.14-15.43,17.58-8.69.42-15.63-6.85-16.03-16.94-.16-4.01-.01-8.03-.01-12.04,0-5.14,0-10.27-.02-15.41Z"/>
  <path class="cls-1" d="M770.08,343.47c0,8.91.1,17.81-.03,26.72-.13,9.36-6.12,15.46-14.78,15.34-8.38-.11-13.43-5.92-13.49-15.54-.07-12.02-.25-24.05-.09-36.07.05-4.05-1.11-5.69-5.37-6.53-15.49-3.06-30.86-6.71-46.28-10.11-4.48-.99-8.62-2.63-11.14-6.67-3.46-5.54-3.87-11.35-.25-16.99,3.78-5.88,9.38-6.97,15.81-5.51,16.48,3.75,32.97,7.5,49.46,11.2,5.25,1.18,10.58,2.03,15.8,3.33,6.12,1.53,10.33,7.13,10.38,13.44.07,9.13.02,18.25.02,27.38h-.04Z"/>
</svg>